<?xml version="1.0" encoding="UTF-8"?>
<svg xmlns="http://www.w3.org/2000/svg" xmlns:xlink="http://www.w3.org/1999/xlink" width="3328.3" height="2910.9" viewBox="0 0 3328.3 2910.9">
<defs>
<clipPath id="clip-0">
<path clip-rule="nonzero" d="M 0 0 L 3328.300781 0 L 3328.300781 2910.898438 L 0 2910.898438 Z M 0 0 "/>
</clipPath>
<clipPath id="clip-1">
<path clip-rule="nonzero" d="M 1400.800781 28.601562 C 1322.300781 94.300781 1250.699219 190.199219 1189.800781 313.101562 C 1111.601562 470.800781 1056.199219 662 1027.199219 870.300781 C 854 809.800781 707.199219 724.699219 603 620.300781 C 773.199219 319 1063.101562 104 1400.800781 28.601562 Z M 1027.800781 1569.398438 L 497.5 1569.398438 C 410 1277.898438 434.601562 964.300781 566.398438 690.101562 C 679.898438 797.699219 836.199219 885.101562 1017.800781 946.699219 C 995.800781 1153.898438 999.199219 1363 1027.800781 1569.398438 Z M 2249 1218 C 2249.101562 1335.601562 2240.699219 1453 2223.800781 1569.398438 L 1104.300781 1569.398438 C 1087.398438 1453.101562 1079 1335.601562 1079.199219 1218 C 1079.101562 1135.101562 1083.300781 1052.199219 1091.5 969.699219 C 1277.699219 1022.398438 1470.5 1048.800781 1664.101562 1048.101562 C 1857.699219 1048.898438 2050.398438 1022.5 2236.699219 969.699219 C 2245 1052.199219 2249.101562 1135.101562 2249 1218 Z M 2227.898438 893.898438 C 2044.699219 946.898438 1854.800781 973.300781 1664.101562 972.398438 C 1473.398438 973.300781 1283.5 946.800781 1100.300781 893.898438 C 1127.699219 688.601562 1181.199219 500.601562 1257.601562 346.800781 C 1366.800781 126.601562 1508.398438 3.800781 1657 0 L 1671.199219 0 C 1819.800781 3.800781 1961.398438 126.601562 2070.601562 346.800781 C 2146.898438 500.699219 2200.5 688.601562 2227.898438 893.898438 Z M 2725.199219 620.300781 C 2621 724.699219 2474.199219 809.898438 2301 870.300781 C 2272 662 2216.398438 470.800781 2138.398438 313.199219 C 2077.398438 190.300781 2005.898438 94.398438 1927.398438 28.699219 C 2265 104 2555 319 2725.199219 620.300781 Z M 2882 1218 C 2882.101562 1337 2864.800781 1455.398438 2830.5 1569.398438 L 2300.398438 1569.398438 C 2316.699219 1453 2324.898438 1335.601562 2324.800781 1218 C 2324.898438 1127.398438 2320.101562 1036.800781 2310.398438 946.699219 C 2491.898438 885.101562 2648 797.800781 2761.800781 690.101562 C 2841.199219 854.800781 2882.300781 1035.300781 2882 1218 Z M 2866.199219 2239.199219 C 2983.101562 2280.699219 3115.800781 2327.699219 3115.800781 2455.800781 C 3115.800781 2565.601562 2999.300781 2655 2856 2655 C 2712.699219 2655 2596.300781 2565.699219 2596.300781 2455.800781 C 2596.300781 2434.898438 2613.199219 2418 2634.101562 2418 C 2655 2418 2671.898438 2434.898438 2671.898438 2455.800781 C 2671.898438 2522.699219 2756.199219 2579.300781 2855.898438 2579.300781 C 2955.601562 2579.300781 3040 2522.699219 3040 2455.800781 C 3040 2386.398438 2961.199219 2353.199219 2840.898438 2310.5 C 2726.199219 2269.800781 2596.199219 2223.601562 2596.199219 2099.699219 C 2596.199219 1989.898438 2712.699219 1900.601562 2855.898438 1900.601562 C 2999.101562 1900.601562 3115.699219 1989.898438 3115.699219 2099.699219 C 3115.699219 2120.601562 3098.800781 2137.5 3077.898438 2137.5 C 3057 2137.5 3040.101562 2120.601562 3040.101562 2099.699219 C 3040.101562 2032.800781 2955.800781 1976.199219 2856 1976.199219 C 2756.199219 1976.199219 2672 2032.800781 2672 2099.699219 C 2671.800781 2165.5 2748.800781 2197.699219 2866.199219 2239.5 Z M 2420.5 1947.101562 L 2260.699219 2625.800781 C 2255.898438 2646.101562 2235.5 2658.699219 2215.199219 2653.898438 C 2201.300781 2650.601562 2190.5 2639.800781 2187.101562 2625.800781 L 2064.898438 2103.898438 L 1942 2625.800781 C 1937.199219 2646.101562 1916.800781 2658.699219 1896.5 2653.898438 C 1882.601562 2650.601562 1871.800781 2639.800781 1868.398438 2625.800781 L 1708.601562 1947.101562 C 1703.199219 1926.898438 1715.300781 1906.199219 1735.5 1900.800781 C 1755.699219 1895.398438 1776.398438 1907.5 1781.800781 1927.699219 C 1782 1928.398438 1782.199219 1929.101562 1782.300781 1929.800781 L 1905.300781 2452.101562 L 2028.300781 1929.800781 C 2032.300781 1912.699219 2047.5 1900.601562 2065.101562 1900.601562 C 2082.601562 1900.601562 2097.898438 1912.699219 2101.898438 1929.800781 L 2224.101562 2451.699219 L 2346.898438 1929.800781 C 2351.699219 1909.5 2372.101562 1896.800781 2392.398438 1901.601562 C 2412.699219 1906.300781 2425.300781 1926.699219 2420.5 1947.101562 Z M 1370.101562 2239.101562 C 1391 2239.101562 1407.898438 2256 1407.898438 2276.898438 C 1407.898438 2297.800781 1391 2314.699219 1370.101562 2314.699219 L 1113.601562 2314.699219 L 1113.601562 2579.5 L 1470.800781 2579.5 C 1491.699219 2579.5 1508.601562 2596.398438 1508.601562 2617.300781 C 1508.601562 2638.199219 1491.699219 2655.101562 1470.800781 2655.101562 L 1075.800781 2655.101562 C 1054.898438 2655.101562 1038 2638.199219 1038 2617.300781 L 1038 1938.5 C 1038 1917.601562 1054.898438 1900.699219 1075.800781 1900.699219 L 1470.800781 1900.699219 C 1491.699219 1900.699219 1508.601562 1917.601562 1508.601562 1938.5 C 1508.601562 1959.398438 1491.699219 1976.300781 1470.800781 1976.300781 L 1113.601562 1976.300781 L 1113.601562 2238.898438 Z M 751.398438 2617.398438 C 751.398438 2638.300781 734.398438 2655.199219 713.5 2655.101562 C 701 2655.101562 689.398438 2648.898438 682.300781 2638.601562 L 288.199219 2061.101562 L 288.199219 2617.300781 C 288.199219 2638.199219 271.300781 2655.101562 250.398438 2655.101562 C 229.5 2655.101562 212.601562 2638.199219 212.601562 2617.300781 L 212.601562 1938.5 C 212.601562 1917.601562 229.5 1900.699219 250.398438 1900.699219 C 262.898438 1900.699219 274.601562 1906.898438 281.601562 1917.199219 L 675.699219 2494.699219 L 675.699219 1938.5 C 675.699219 1917.601562 692.601562 1900.699219 713.5 1900.699219 C 734.398438 1900.699219 751.300781 1917.601562 751.300781 1938.5 L 751.300781 2617.398438 Z M 2860 1645 L 0 1645 L 0 2910.898438 L 3328.300781 2910.898438 L 3328.300781 1645 Z M 2860 1645 "/>
</clipPath>
<clipPath id="clip-2">
<path clip-rule="nonzero" d="M 1400.800781 28.601562 C 1322.300781 94.300781 1250.699219 190.199219 1189.800781 313.101562 C 1111.601562 470.800781 1056.199219 662 1027.199219 870.300781 C 854 809.800781 707.199219 724.699219 603 620.300781 C 773.199219 319 1063.101562 104 1400.800781 28.601562 Z M 1027.800781 1569.398438 L 497.5 1569.398438 C 410 1277.898438 434.601562 964.300781 566.398438 690.101562 C 679.898438 797.699219 836.199219 885.101562 1017.800781 946.699219 C 995.800781 1153.898438 999.199219 1363 1027.800781 1569.398438 Z M 2249 1218 C 2249.101562 1335.601562 2240.699219 1453 2223.800781 1569.398438 L 1104.300781 1569.398438 C 1087.398438 1453.101562 1079 1335.601562 1079.199219 1218 C 1079.101562 1135.101562 1083.300781 1052.199219 1091.5 969.699219 C 1277.699219 1022.398438 1470.5 1048.800781 1664.101562 1048.101562 C 1857.699219 1048.898438 2050.398438 1022.5 2236.699219 969.699219 C 2245 1052.199219 2249.101562 1135.101562 2249 1218 Z M 2227.898438 893.898438 C 2044.699219 946.898438 1854.800781 973.300781 1664.101562 972.398438 C 1473.398438 973.300781 1283.5 946.800781 1100.300781 893.898438 C 1127.699219 688.601562 1181.199219 500.601562 1257.601562 346.800781 C 1366.800781 126.601562 1508.398438 3.800781 1657 0 L 1671.199219 0 C 1819.800781 3.800781 1961.398438 126.601562 2070.601562 346.800781 C 2146.898438 500.699219 2200.5 688.601562 2227.898438 893.898438 Z M 2725.199219 620.300781 C 2621 724.699219 2474.199219 809.898438 2301 870.300781 C 2272 662 2216.398438 470.800781 2138.398438 313.199219 C 2077.398438 190.300781 2005.898438 94.398438 1927.398438 28.699219 C 2265 104 2555 319 2725.199219 620.300781 Z M 2882 1218 C 2882.101562 1337 2864.800781 1455.398438 2830.5 1569.398438 L 2300.398438 1569.398438 C 2316.699219 1453 2324.898438 1335.601562 2324.800781 1218 C 2324.898438 1127.398438 2320.101562 1036.800781 2310.398438 946.699219 C 2491.898438 885.101562 2648 797.800781 2761.800781 690.101562 C 2841.199219 854.800781 2882.300781 1035.300781 2882 1218 Z M 2866.199219 2239.199219 C 2983.101562 2280.699219 3115.800781 2327.699219 3115.800781 2455.800781 C 3115.800781 2565.601562 2999.300781 2655 2856 2655 C 2712.699219 2655 2596.300781 2565.699219 2596.300781 2455.800781 C 2596.300781 2434.898438 2613.199219 2418 2634.101562 2418 C 2655 2418 2671.898438 2434.898438 2671.898438 2455.800781 C 2671.898438 2522.699219 2756.199219 2579.300781 2855.898438 2579.300781 C 2955.601562 2579.300781 3040 2522.699219 3040 2455.800781 C 3040 2386.398438 2961.199219 2353.199219 2840.898438 2310.5 C 2726.199219 2269.800781 2596.199219 2223.601562 2596.199219 2099.699219 C 2596.199219 1989.898438 2712.699219 1900.601562 2855.898438 1900.601562 C 2999.101562 1900.601562 3115.699219 1989.898438 3115.699219 2099.699219 C 3115.699219 2120.601562 3098.800781 2137.5 3077.898438 2137.5 C 3057 2137.5 3040.101562 2120.601562 3040.101562 2099.699219 C 3040.101562 2032.800781 2955.800781 1976.199219 2856 1976.199219 C 2756.199219 1976.199219 2672 2032.800781 2672 2099.699219 C 2671.800781 2165.5 2748.800781 2197.699219 2866.199219 2239.5 Z M 2420.5 1947.101562 L 2260.699219 2625.800781 C 2255.898438 2646.101562 2235.5 2658.699219 2215.199219 2653.898438 C 2201.300781 2650.601562 2190.5 2639.800781 2187.101562 2625.800781 L 2064.898438 2103.898438 L 1942 2625.800781 C 1937.199219 2646.101562 1916.800781 2658.699219 1896.5 2653.898438 C 1882.601562 2650.601562 1871.800781 2639.800781 1868.398438 2625.800781 L 1708.601562 1947.101562 C 1703.199219 1926.898438 1715.300781 1906.199219 1735.5 1900.800781 C 1755.699219 1895.398438 1776.398438 1907.5 1781.800781 1927.699219 C 1782 1928.398438 1782.199219 1929.101562 1782.300781 1929.800781 L 1905.300781 2452.101562 L 2028.300781 1929.800781 C 2032.300781 1912.699219 2047.5 1900.601562 2065.101562 1900.601562 C 2082.601562 1900.601562 2097.898438 1912.699219 2101.898438 1929.800781 L 2224.101562 2451.699219 L 2346.898438 1929.800781 C 2351.699219 1909.5 2372.101562 1896.800781 2392.398438 1901.601562 C 2412.699219 1906.300781 2425.300781 1926.699219 2420.5 1947.101562 Z M 1370.101562 2239.101562 C 1391 2239.101562 1407.898438 2256 1407.898438 2276.898438 C 1407.898438 2297.800781 1391 2314.699219 1370.101562 2314.699219 L 1113.601562 2314.699219 L 1113.601562 2579.5 L 1470.800781 2579.5 C 1491.699219 2579.5 1508.601562 2596.398438 1508.601562 2617.300781 C 1508.601562 2638.199219 1491.699219 2655.101562 1470.800781 2655.101562 L 1075.800781 2655.101562 C 1054.898438 2655.101562 1038 2638.199219 1038 2617.300781 L 1038 1938.5 C 1038 1917.601562 1054.898438 1900.699219 1075.800781 1900.699219 L 1470.800781 1900.699219 C 1491.699219 1900.699219 1508.601562 1917.601562 1508.601562 1938.5 C 1508.601562 1959.398438 1491.699219 1976.300781 1470.800781 1976.300781 L 1113.601562 1976.300781 L 1113.601562 2238.898438 Z M 751.398438 2617.398438 C 751.398438 2638.300781 734.398438 2655.199219 713.5 2655.101562 C 701 2655.101562 689.398438 2648.898438 682.300781 2638.601562 L 288.199219 2061.101562 L 288.199219 2617.300781 C 288.199219 2638.199219 271.300781 2655.101562 250.398438 2655.101562 C 229.5 2655.101562 212.601562 2638.199219 212.601562 2617.300781 L 212.601562 1938.5 C 212.601562 1917.601562 229.5 1900.699219 250.398438 1900.699219 C 262.898438 1900.699219 274.601562 1906.898438 281.601562 1917.199219 L 675.699219 2494.699219 L 675.699219 1938.5 C 675.699219 1917.601562 692.601562 1900.699219 713.5 1900.699219 C 734.398438 1900.699219 751.300781 1917.601562 751.300781 1938.5 L 751.300781 2617.398438 Z M 2860 1645 L 0 1645 L 0 2910.898438 L 3328.300781 2910.898438 L 3328.300781 1645 L 2860 1645 "/>
</clipPath>
<linearGradient id="linear-pattern-0" gradientUnits="userSpaceOnUse" x1="-0.228411" y1="0" x2="1.000001" y2="0" gradientTransform="matrix(2539.54, 2539.54, -2539.54, 2539.54, 394.347, 765.77)">
<stop offset="0" stop-color="rgb(34.365845%, 58.634949%, 84.017944%)" stop-opacity="1"/>
<stop offset="0.125" stop-color="rgb(34.365845%, 58.634949%, 84.017944%)" stop-opacity="1"/>
<stop offset="0.1875" stop-color="rgb(34.34906%, 58.599854%, 83.998108%)" stop-opacity="1"/>
<stop offset="0.191406" stop-color="rgb(34.2453%, 58.392334%, 83.882141%)" stop-opacity="1"/>
<stop offset="0.195312" stop-color="rgb(34.159851%, 58.218384%, 83.784485%)" stop-opacity="1"/>
<stop offset="0.199219" stop-color="rgb(33.955383%, 58.024597%, 83.683777%)" stop-opacity="1"/>
<stop offset="0.203125" stop-color="rgb(33.750916%, 57.832336%, 83.581543%)" stop-opacity="1"/>
<stop offset="0.207031" stop-color="rgb(33.447266%, 57.621765%, 83.476257%)" stop-opacity="1"/>
<stop offset="0.210938" stop-color="rgb(33.145142%, 57.41272%, 83.370972%)" stop-opacity="1"/>
<stop offset="0.214844" stop-color="rgb(33.03833%, 57.23877%, 83.273315%)" stop-opacity="1"/>
<stop offset="0.21875" stop-color="rgb(32.929993%, 57.063293%, 83.175659%)" stop-opacity="1"/>
<stop offset="0.222656" stop-color="rgb(32.846069%, 56.893921%, 83.078003%)" stop-opacity="1"/>
<stop offset="0.226562" stop-color="rgb(32.762146%, 56.723022%, 82.981873%)" stop-opacity="1"/>
<stop offset="0.230469" stop-color="rgb(32.678223%, 56.555176%, 82.885742%)" stop-opacity="1"/>
<stop offset="0.234375" stop-color="rgb(32.594299%, 56.385803%, 82.788086%)" stop-opacity="1"/>
<stop offset="0.242188" stop-color="rgb(32.440186%, 56.25%, 82.71637%)" stop-opacity="1"/>
<stop offset="0.246094" stop-color="rgb(32.081604%, 56.004333%, 82.591248%)" stop-opacity="1"/>
<stop offset="0.25" stop-color="rgb(31.878662%, 55.892944%, 82.536316%)" stop-opacity="1"/>
<stop offset="0.253906" stop-color="rgb(31.799316%, 55.661011%, 82.400513%)" stop-opacity="1"/>
<stop offset="0.257812" stop-color="rgb(31.719971%, 55.427551%, 82.264709%)" stop-opacity="1"/>
<stop offset="0.261719" stop-color="rgb(31.643677%, 55.227661%, 82.147217%)" stop-opacity="1"/>
<stop offset="0.265625" stop-color="rgb(31.567383%, 55.027771%, 82.029724%)" stop-opacity="1"/>
<stop offset="0.273438" stop-color="rgb(31.472778%, 54.937744%, 81.980896%)" stop-opacity="1"/>
<stop offset="0.277344" stop-color="rgb(31.298828%, 54.66156%, 81.82373%)" stop-opacity="1"/>
<stop offset="0.28125" stop-color="rgb(31.219482%, 54.476929%, 81.715393%)" stop-opacity="1"/>
<stop offset="0.285156" stop-color="rgb(31.152344%, 54.238892%, 81.573486%)" stop-opacity="1"/>
<stop offset="0.289062" stop-color="rgb(31.083679%, 53.999329%, 81.43158%)" stop-opacity="1"/>
<stop offset="0.296875" stop-color="rgb(30.989075%, 53.90625%, 81.3797%)" stop-opacity="1"/>
<stop offset="0.304688" stop-color="rgb(30.775452%, 53.669739%, 81.246948%)" stop-opacity="1"/>
<stop offset="0.308594" stop-color="rgb(30.482483%, 53.276062%, 81.022644%)" stop-opacity="1"/>
<stop offset="0.3125" stop-color="rgb(30.307007%, 53.024292%, 80.877686%)" stop-opacity="1"/>
<stop offset="0.316406" stop-color="rgb(30.195618%, 52.832031%, 80.764771%)" stop-opacity="1"/>
<stop offset="0.320313" stop-color="rgb(30.084229%, 52.639771%, 80.653381%)" stop-opacity="1"/>
<stop offset="0.324219" stop-color="rgb(30.004883%, 52.478027%, 80.557251%)" stop-opacity="1"/>
<stop offset="0.328125" stop-color="rgb(29.927063%, 52.316284%, 80.461121%)" stop-opacity="1"/>
<stop offset="0.332031" stop-color="rgb(29.968262%, 52.096558%, 80.323792%)" stop-opacity="1"/>
<stop offset="0.335938" stop-color="rgb(30.00946%, 51.876831%, 80.186462%)" stop-opacity="1"/>
<stop offset="0.339844" stop-color="rgb(30.007935%, 51.678467%, 80.064392%)" stop-opacity="1"/>
<stop offset="0.34375" stop-color="rgb(30.006409%, 51.480103%, 79.942322%)" stop-opacity="1"/>
<stop offset="0.347656" stop-color="rgb(29.927063%, 51.321411%, 79.847717%)" stop-opacity="1"/>
<stop offset="0.351562" stop-color="rgb(29.849243%, 51.159668%, 79.751587%)" stop-opacity="1"/>
<stop offset="0.355469" stop-color="rgb(29.853821%, 50.959778%, 79.627991%)" stop-opacity="1"/>
<stop offset="0.359375" stop-color="rgb(29.858398%, 50.758362%, 79.502869%)" stop-opacity="1"/>
<stop offset="0.363281" stop-color="rgb(29.899597%, 50.543213%, 79.367065%)" stop-opacity="1"/>
<stop offset="0.367188" stop-color="rgb(29.940796%, 50.326538%, 79.231262%)" stop-opacity="1"/>
<stop offset="0.371094" stop-color="rgb(29.968262%, 50.18158%, 79.139709%)" stop-opacity="1"/>
<stop offset="0.375" stop-color="rgb(29.995728%, 50.036621%, 79.048157%)" stop-opacity="1"/>
<stop offset="0.378906" stop-color="rgb(30.06897%, 49.865723%, 78.939819%)" stop-opacity="1"/>
<stop offset="0.382813" stop-color="rgb(30.143738%, 49.69635%, 78.831482%)" stop-opacity="1"/>
<stop offset="0.386719" stop-color="rgb(30.290222%, 49.488831%, 78.697205%)" stop-opacity="1"/>
<stop offset="0.390625" stop-color="rgb(30.436707%, 49.281311%, 78.562927%)" stop-opacity="1"/>
<stop offset="0.394531" stop-color="rgb(30.584717%, 49.073792%, 78.42865%)" stop-opacity="1"/>
<stop offset="0.398438" stop-color="rgb(30.729675%, 48.866272%, 78.294373%)" stop-opacity="1"/>
<stop offset="0.402344" stop-color="rgb(30.87616%, 48.657227%, 78.158569%)" stop-opacity="1"/>
<stop offset="0.40625" stop-color="rgb(31.022644%, 48.448181%, 78.024292%)" stop-opacity="1"/>
<stop offset="0.410156" stop-color="rgb(31.167603%, 48.239136%, 77.890015%)" stop-opacity="1"/>
<stop offset="0.414063" stop-color="rgb(31.312561%, 48.028564%, 77.754211%)" stop-opacity="1"/>
<stop offset="0.417969" stop-color="rgb(31.45752%, 47.817993%, 77.619934%)" stop-opacity="1"/>
<stop offset="0.421875" stop-color="rgb(31.602478%, 47.605896%, 77.484131%)" stop-opacity="1"/>
<stop offset="0.425781" stop-color="rgb(31.747437%, 47.395325%, 77.348328%)" stop-opacity="1"/>
<stop offset="0.429688" stop-color="rgb(31.892395%, 47.183228%, 77.21405%)" stop-opacity="1"/>
<stop offset="0.433594" stop-color="rgb(32.037354%, 46.97113%, 77.078247%)" stop-opacity="1"/>
<stop offset="0.4375" stop-color="rgb(32.180786%, 46.759033%, 76.942444%)" stop-opacity="1"/>
<stop offset="0.441406" stop-color="rgb(32.325745%, 46.537781%, 76.802063%)" stop-opacity="1"/>
<stop offset="0.445312" stop-color="rgb(32.470703%, 46.315002%, 76.661682%)" stop-opacity="1"/>
<stop offset="0.449219" stop-color="rgb(32.627869%, 46.026611%, 76.480103%)" stop-opacity="1"/>
<stop offset="0.453125" stop-color="rgb(32.783508%, 45.73822%, 76.298523%)" stop-opacity="1"/>
<stop offset="0.457031" stop-color="rgb(32.981873%, 45.487976%, 76.139832%)" stop-opacity="1"/>
<stop offset="0.460938" stop-color="rgb(33.180237%, 45.23468%, 75.979614%)" stop-opacity="1"/>
<stop offset="0.464844" stop-color="rgb(33.427429%, 45.027161%, 75.845337%)" stop-opacity="1"/>
<stop offset="0.46875" stop-color="rgb(33.67157%, 44.816589%, 75.71106%)" stop-opacity="1"/>
<stop offset="0.472656" stop-color="rgb(33.926392%, 44.544983%, 75.540161%)" stop-opacity="1"/>
<stop offset="0.476563" stop-color="rgb(34.181213%, 44.273376%, 75.369263%)" stop-opacity="1"/>
<stop offset="0.480469" stop-color="rgb(34.437561%, 43.984985%, 75.187683%)" stop-opacity="1"/>
<stop offset="0.484375" stop-color="rgb(34.693909%, 43.695068%, 75.007629%)" stop-opacity="1"/>
<stop offset="0.488281" stop-color="rgb(34.94873%, 43.406677%, 74.82605%)" stop-opacity="1"/>
<stop offset="0.492188" stop-color="rgb(35.203552%, 43.115234%, 74.645996%)" stop-opacity="1"/>
<stop offset="0.496094" stop-color="rgb(35.458374%, 42.822266%, 74.464417%)" stop-opacity="1"/>
<stop offset="0.5" stop-color="rgb(35.71167%, 42.529297%, 74.282837%)" stop-opacity="1"/>
<stop offset="0.503906" stop-color="rgb(35.96344%, 42.234802%, 74.101257%)" stop-opacity="1"/>
<stop offset="0.507813" stop-color="rgb(36.216736%, 41.938782%, 73.919678%)" stop-opacity="1"/>
<stop offset="0.511719" stop-color="rgb(36.5448%, 41.7099%, 73.777771%)" stop-opacity="1"/>
<stop offset="0.515625" stop-color="rgb(36.871338%, 41.481018%, 73.635864%)" stop-opacity="1"/>
<stop offset="0.519531" stop-color="rgb(37.214661%, 41.247559%, 73.469543%)" stop-opacity="1"/>
<stop offset="0.523438" stop-color="rgb(37.556458%, 41.012573%, 73.300171%)" stop-opacity="1"/>
<stop offset="0.527344" stop-color="rgb(37.911987%, 40.716553%, 72.993469%)" stop-opacity="1"/>
<stop offset="0.53125" stop-color="rgb(38.264465%, 40.419006%, 72.688293%)" stop-opacity="1"/>
<stop offset="0.535156" stop-color="rgb(38.624573%, 40.080261%, 72.288513%)" stop-opacity="1"/>
<stop offset="0.539062" stop-color="rgb(38.983154%, 39.738464%, 71.890259%)" stop-opacity="1"/>
<stop offset="0.542969" stop-color="rgb(39.347839%, 39.363098%, 71.41571%)" stop-opacity="1"/>
<stop offset="0.546875" stop-color="rgb(39.710999%, 38.98468%, 70.942688%)" stop-opacity="1"/>
<stop offset="0.550781" stop-color="rgb(40.061951%, 38.674927%, 70.56427%)" stop-opacity="1"/>
<stop offset="0.554688" stop-color="rgb(40.411377%, 38.362122%, 70.187378%)" stop-opacity="1"/>
<stop offset="0.558594" stop-color="rgb(40.759277%, 38.05542%, 69.837952%)" stop-opacity="1"/>
<stop offset="0.5625" stop-color="rgb(41.107178%, 37.748718%, 69.488525%)" stop-opacity="1"/>
<stop offset="0.566406" stop-color="rgb(41.452026%, 37.437439%, 69.186401%)" stop-opacity="1"/>
<stop offset="0.570312" stop-color="rgb(41.795349%, 37.12616%, 68.884277%)" stop-opacity="1"/>
<stop offset="0.574219" stop-color="rgb(42.192078%, 36.860657%, 68.574524%)" stop-opacity="1"/>
<stop offset="0.578125" stop-color="rgb(42.58728%, 36.592102%, 68.263245%)" stop-opacity="1"/>
<stop offset="0.582031" stop-color="rgb(43.019104%, 36.358643%, 67.947388%)" stop-opacity="1"/>
<stop offset="0.585938" stop-color="rgb(43.449402%, 36.122131%, 67.630005%)" stop-opacity="1"/>
<stop offset="0.589844" stop-color="rgb(43.888855%, 35.810852%, 67.272949%)" stop-opacity="1"/>
<stop offset="0.59375" stop-color="rgb(44.326782%, 35.498047%, 66.914368%)" stop-opacity="1"/>
<stop offset="0.597656" stop-color="rgb(44.764709%, 35.176086%, 66.55426%)" stop-opacity="1"/>
<stop offset="0.601563" stop-color="rgb(45.202637%, 34.8526%, 66.195679%)" stop-opacity="1"/>
<stop offset="0.605469" stop-color="rgb(45.637512%, 34.529114%, 65.837097%)" stop-opacity="1"/>
<stop offset="0.609375" stop-color="rgb(46.070862%, 34.202576%, 65.478516%)" stop-opacity="1"/>
<stop offset="0.613281" stop-color="rgb(46.469116%, 33.901978%, 65.101624%)" stop-opacity="1"/>
<stop offset="0.617188" stop-color="rgb(46.865845%, 33.599854%, 64.727783%)" stop-opacity="1"/>
<stop offset="0.621094" stop-color="rgb(47.238159%, 33.314514%, 64.343262%)" stop-opacity="1"/>
<stop offset="0.625" stop-color="rgb(47.608948%, 33.029175%, 63.95874%)" stop-opacity="1"/>
<stop offset="0.628906" stop-color="rgb(48.034668%, 32.701111%, 63.545227%)" stop-opacity="1"/>
<stop offset="0.632812" stop-color="rgb(48.461914%, 32.369995%, 63.13324%)" stop-opacity="1"/>
<stop offset="0.636719" stop-color="rgb(48.9151%, 32.063293%, 62.733459%)" stop-opacity="1"/>
<stop offset="0.640625" stop-color="rgb(49.369812%, 31.752014%, 62.335205%)" stop-opacity="1"/>
<stop offset="0.644531" stop-color="rgb(49.882507%, 31.495667%, 61.964417%)" stop-opacity="1"/>
<stop offset="0.648438" stop-color="rgb(50.393677%, 31.236267%, 61.595154%)" stop-opacity="1"/>
<stop offset="0.652344" stop-color="rgb(50.90332%, 30.973816%, 61.264038%)" stop-opacity="1"/>
<stop offset="0.65625" stop-color="rgb(51.411438%, 30.709839%, 60.931396%)" stop-opacity="1"/>
<stop offset="0.660156" stop-color="rgb(51.919556%, 30.44281%, 60.621643%)" stop-opacity="1"/>
<stop offset="0.664063" stop-color="rgb(52.424622%, 30.174255%, 60.31189%)" stop-opacity="1"/>
<stop offset="0.667969" stop-color="rgb(52.874756%, 29.870605%, 59.934998%)" stop-opacity="1"/>
<stop offset="0.671875" stop-color="rgb(53.321838%, 29.566956%, 59.558105%)" stop-opacity="1"/>
<stop offset="0.675781" stop-color="rgb(53.80249%, 29.263306%, 59.141541%)" stop-opacity="1"/>
<stop offset="0.679688" stop-color="rgb(54.278564%, 28.95813%, 58.724976%)" stop-opacity="1"/>
<stop offset="0.683594" stop-color="rgb(54.818726%, 28.65448%, 58.233643%)" stop-opacity="1"/>
<stop offset="0.6875" stop-color="rgb(55.355835%, 28.35083%, 57.743835%)" stop-opacity="1"/>
<stop offset="0.691406" stop-color="rgb(55.860901%, 28.063965%, 57.382202%)" stop-opacity="1"/>
<stop offset="0.695313" stop-color="rgb(56.365967%, 27.775574%, 57.020569%)" stop-opacity="1"/>
<stop offset="0.699219" stop-color="rgb(56.858826%, 27.49176%, 56.710815%)" stop-opacity="1"/>
<stop offset="0.703125" stop-color="rgb(57.348633%, 27.204895%, 56.402588%)" stop-opacity="1"/>
<stop offset="0.707031" stop-color="rgb(57.846069%, 26.84021%, 56.002808%)" stop-opacity="1"/>
<stop offset="0.710938" stop-color="rgb(58.340454%, 26.470947%, 55.604553%)" stop-opacity="1"/>
<stop offset="0.714844" stop-color="rgb(58.805847%, 26.194763%, 55.204773%)" stop-opacity="1"/>
<stop offset="0.71875" stop-color="rgb(59.268188%, 25.917053%, 54.806519%)" stop-opacity="1"/>
<stop offset="0.722656" stop-color="rgb(59.686279%, 25.787354%, 54.406738%)" stop-opacity="1"/>
<stop offset="0.726562" stop-color="rgb(60.099792%, 25.657654%, 54.006958%)" stop-opacity="1"/>
<stop offset="0.730469" stop-color="rgb(60.636902%, 25.343323%, 53.610229%)" stop-opacity="1"/>
<stop offset="0.734375" stop-color="rgb(61.169434%, 25.027466%, 53.211975%)" stop-opacity="1"/>
<stop offset="0.738281" stop-color="rgb(61.738586%, 24.656677%, 52.824402%)" stop-opacity="1"/>
<stop offset="0.742188" stop-color="rgb(62.306213%, 24.282837%, 52.435303%)" stop-opacity="1"/>
<stop offset="0.746094" stop-color="rgb(62.780762%, 24.082947%, 52.119446%)" stop-opacity="1"/>
<stop offset="0.75" stop-color="rgb(63.253784%, 23.881531%, 51.803589%)" stop-opacity="1"/>
<stop offset="0.753906" stop-color="rgb(63.739014%, 23.626709%, 51.446533%)" stop-opacity="1"/>
<stop offset="0.757813" stop-color="rgb(64.222717%, 23.370361%, 51.089478%)" stop-opacity="1"/>
<stop offset="0.761719" stop-color="rgb(64.720154%, 23.040771%, 50.67749%)" stop-opacity="1"/>
<stop offset="0.765625" stop-color="rgb(65.214539%, 22.709656%, 50.265503%)" stop-opacity="1"/>
<stop offset="0.769531" stop-color="rgb(65.690613%, 22.410583%, 49.862671%)" stop-opacity="1"/>
<stop offset="0.773438" stop-color="rgb(66.163635%, 22.109985%, 49.459839%)" stop-opacity="1"/>
<stop offset="0.777344" stop-color="rgb(66.63208%, 21.827698%, 49.064636%)" stop-opacity="1"/>
<stop offset="0.78125" stop-color="rgb(67.098999%, 21.54541%, 48.669434%)" stop-opacity="1"/>
<stop offset="0.785156" stop-color="rgb(67.564392%, 21.343994%, 48.306274%)" stop-opacity="1"/>
<stop offset="0.789063" stop-color="rgb(68.026733%, 21.142578%, 47.943115%)" stop-opacity="1"/>
<stop offset="0.792969" stop-color="rgb(68.533325%, 20.93811%, 47.55249%)" stop-opacity="1"/>
<stop offset="0.796875" stop-color="rgb(69.036865%, 20.735168%, 47.163391%)" stop-opacity="1"/>
<stop offset="0.800781" stop-color="rgb(69.590759%, 20.529175%, 46.742249%)" stop-opacity="1"/>
<stop offset="0.804688" stop-color="rgb(70.143127%, 20.321655%, 46.321106%)" stop-opacity="1"/>
<stop offset="0.808594" stop-color="rgb(70.617676%, 20.111084%, 45.994568%)" stop-opacity="1"/>
<stop offset="0.8125" stop-color="rgb(71.092224%, 19.898987%, 45.666504%)" stop-opacity="1"/>
<stop offset="0.816406" stop-color="rgb(71.563721%, 19.673157%, 45.339966%)" stop-opacity="1"/>
<stop offset="0.820312" stop-color="rgb(72.032166%, 19.444275%, 45.013428%)" stop-opacity="1"/>
<stop offset="0.824219" stop-color="rgb(72.579956%, 19.139099%, 44.567871%)" stop-opacity="1"/>
<stop offset="0.828125" stop-color="rgb(73.124695%, 18.833923%, 44.122314%)" stop-opacity="1"/>
<stop offset="0.832031" stop-color="rgb(73.623657%, 18.580627%, 43.696594%)" stop-opacity="1"/>
<stop offset="0.835937" stop-color="rgb(74.119568%, 18.327332%, 43.2724%)" stop-opacity="1"/>
<stop offset="0.839844" stop-color="rgb(74.572754%, 18.127441%, 42.866516%)" stop-opacity="1"/>
<stop offset="0.84375" stop-color="rgb(75.024414%, 17.926025%, 42.460632%)" stop-opacity="1"/>
<stop offset="0.847656" stop-color="rgb(75.39978%, 17.74292%, 42.015076%)" stop-opacity="1"/>
<stop offset="0.851563" stop-color="rgb(75.773621%, 17.558289%, 41.572571%)" stop-opacity="1"/>
<stop offset="0.855469" stop-color="rgb(76.167297%, 17.376709%, 41.152954%)" stop-opacity="1"/>
<stop offset="0.859375" stop-color="rgb(76.560974%, 17.193604%, 40.733337%)" stop-opacity="1"/>
<stop offset="0.863281" stop-color="rgb(77.087402%, 17.002869%, 40.434265%)" stop-opacity="1"/>
<stop offset="0.867188" stop-color="rgb(77.612305%, 16.812134%, 40.135193%)" stop-opacity="1"/>
<stop offset="0.871094" stop-color="rgb(78.186035%, 16.564941%, 39.79187%)" stop-opacity="1"/>
<stop offset="0.875" stop-color="rgb(78.75824%, 16.314697%, 39.447021%)" stop-opacity="1"/>
<stop offset="0.878906" stop-color="rgb(79.371643%, 16.018677%, 39.067078%)" stop-opacity="1"/>
<stop offset="0.882812" stop-color="rgb(79.985046%, 15.719604%, 38.687134%)" stop-opacity="1"/>
<stop offset="0.886719" stop-color="rgb(80.37262%, 15.596008%, 38.368225%)" stop-opacity="1"/>
<stop offset="0.890625" stop-color="rgb(80.757141%, 15.470886%, 38.046265%)" stop-opacity="1"/>
<stop offset="0.894531" stop-color="rgb(81.114197%, 15.377808%, 37.698364%)" stop-opacity="1"/>
<stop offset="0.898438" stop-color="rgb(81.469727%, 15.281677%, 37.348938%)" stop-opacity="1"/>
<stop offset="0.902344" stop-color="rgb(81.828308%, 15.209961%, 36.878967%)" stop-opacity="1"/>
<stop offset="0.90625" stop-color="rgb(82.185364%, 15.138245%, 36.408997%)" stop-opacity="1"/>
<stop offset="0.910156" stop-color="rgb(82.688904%, 14.935303%, 35.995483%)" stop-opacity="1"/>
<stop offset="0.914062" stop-color="rgb(83.190918%, 14.730835%, 35.583496%)" stop-opacity="1"/>
<stop offset="0.917969" stop-color="rgb(83.798218%, 14.428711%, 35.212708%)" stop-opacity="1"/>
<stop offset="0.921875" stop-color="rgb(84.407043%, 14.126587%, 34.844971%)" stop-opacity="1"/>
<stop offset="0.925781" stop-color="rgb(84.855652%, 13.938904%, 34.506226%)" stop-opacity="1"/>
<stop offset="0.929688" stop-color="rgb(85.302734%, 13.751221%, 34.16748%)" stop-opacity="1"/>
<stop offset="0.933594" stop-color="rgb(85.717773%, 13.630676%, 33.802795%)" stop-opacity="1"/>
<stop offset="0.9375" stop-color="rgb(86.131287%, 13.511658%, 33.436584%)" stop-opacity="1"/>
<stop offset="0.941406" stop-color="rgb(86.491394%, 13.545227%, 32.989502%)" stop-opacity="1"/>
<stop offset="0.945313" stop-color="rgb(86.849976%, 13.580322%, 32.540894%)" stop-opacity="1"/>
<stop offset="0.949219" stop-color="rgb(87.306213%, 13.406372%, 32.182312%)" stop-opacity="1"/>
<stop offset="0.953125" stop-color="rgb(87.760925%, 13.232422%, 31.825256%)" stop-opacity="1"/>
<stop offset="0.957031" stop-color="rgb(88.278198%, 12.927246%, 31.524658%)" stop-opacity="1"/>
<stop offset="0.960938" stop-color="rgb(88.792419%, 12.62207%, 31.227112%)" stop-opacity="1"/>
<stop offset="0.964844" stop-color="rgb(89.241028%, 12.612915%, 30.879211%)" stop-opacity="1"/>
<stop offset="0.96875" stop-color="rgb(89.686584%, 12.60376%, 30.529785%)" stop-opacity="1"/>
<stop offset="0.972656" stop-color="rgb(90.074158%, 12.582397%, 30.178833%)" stop-opacity="1"/>
<stop offset="0.976562" stop-color="rgb(90.461731%, 12.562561%, 29.829407%)" stop-opacity="1"/>
<stop offset="0.980469" stop-color="rgb(90.72113%, 12.487793%, 29.483032%)" stop-opacity="1"/>
<stop offset="0.984375" stop-color="rgb(90.982056%, 12.414551%, 29.138184%)" stop-opacity="1"/>
<stop offset="0.988281" stop-color="rgb(91.355896%, 12.324524%, 28.782654%)" stop-opacity="1"/>
<stop offset="0.992188" stop-color="rgb(91.731262%, 12.232971%, 28.42865%)" stop-opacity="1"/>
<stop offset="0.996094" stop-color="rgb(92.164612%, 12.135315%, 28.070068%)" stop-opacity="1"/>
<stop offset="1" stop-color="rgb(92.597961%, 12.037659%, 27.711487%)" stop-opacity="1"/>
</linearGradient>
</defs>
<g clip-path="url(#clip-0)">
<g clip-path="url(#clip-1)">
<g clip-path="url(#clip-2)">
<path fill-rule="nonzero" fill="url(#linear-pattern-0)" d="M 1664.148438 -1664.148438 L -1455.449219 1455.449219 L 1664.148438 4575.050781 L 4783.75 1455.449219 Z M 1664.148438 -1664.148438 "/>
</g>
</g>
</g>
</svg>
